<svg xmlns="http://www.w3.org/2000/svg" viewBox="0 0 100 100">
  <path d="M74.1,58.3c-0.1,12,10.4,15.9,10.6,16c-0.1,0.2-1.6,5.6-5.4,11.1c-3.3,4.8-6.7,9.6-12.2,9.7c-5.3,0.1-7.1-3.2-13.2-3.2c-6.1,0-8.1,3.1-13.2,3.3c-5.4,0.1-9.4-5.3-12.7-10.1c-6.8-9.8-12-27.7-4.8-40.2c3.5-6.1,9.8-10,16.7-10.1c5.2-0.1,10.2,3.5,13.4,3.5c3.2,0,9.3-4.3,15.5-3.6c2.6,0.1,9.9,1.1,14.6,7.8C83.2,42.8,74.2,46.1,74.1,58.3z M63.2,25c2.8-3.4,4.7-8.1,4.2-12.7c-4,0.1-8.8,2.7-11.7,6.1c-2.6,3-4.8,7.8-4.2,12.3C56.1,31,60.4,28.3,63.2,25z" fill="#000000"/>
</svg>